<svg width="1792" height="1792" viewBox="0 0 1792 1792" fill="#000" xmlns="http://www.w3.org/2000/svg">
<path fill-rule="evenodd" clip-rule="evenodd" d="M512.56 341.533V662.16H651.093V341.533H512.56ZM294.853 189.147L429.44 108H922.227L882.64 157.467V1624.03L896.507 1683.41L843.067 1641.85L639.227 1481.53L651.093 1445.92V895.707H512.56V1382.57L281 1200.49L294.853 1188.61V189.147Z"/>
<path fill-rule="evenodd" clip-rule="evenodd" d="M1280.44 341.533V662.16H1141.91V341.533H1280.44ZM1498.15 189.147L1363.57 108H870.76L910.36 157.467V1624.03L896.506 1683.41L949.933 1641.85L1153.79 1481.53L1141.91 1445.92V895.707H1280.44V1382.57L1512 1200.49L1498.15 1188.61V189.147Z"/>
</svg>
