 <svg version="1.0" xmlns="http://www.w3.org/2000/svg" width="32.000000pt" height="32.000000pt"
            viewBox="0 0 32.000000 32.000000" preserveAspectRatio="xMidYMid meet">

            <g transform="translate(0.000000,32.000000) scale(0.100000,-0.100000)" fill="#000000" stroke="none">
                <path d="M130 310 c-8 -5 -27 -11 -42 -15 -16 -3 -28 -12 -28 -20 0 -8 -12
       -22 -26 -31 -19 -13 -24 -23 -20 -40 4 -13 1 -34 -6 -48 -9 -21 -8 -29 4 -43
       9 -10 18 -27 20 -38 2 -11 13 -25 26 -31 12 -6 30 -17 39 -26 23 -19 104 -18
       128 2 9 8 27 19 38 25 12 6 23 19 25 30 2 11 11 28 20 38 12 14 13 22 4 43 -7
       14 -10 35 -6 48 4 17 -1 27 -20 40 -14 9 -26 23 -26 31 0 8 -12 17 -27 20 -16
       4 -36 10 -45 16 -21 11 -38 11 -58 -1z m65 -170 l-60 -60 -34 34 c-30 30 -33
       37 -21 51 12 14 15 14 35 -5 l21 -20 44 45 c39 40 46 43 59 30 14 -13 9 -22
       -44 -75z" />
            </g>
        </svg>